<?xml version="1.0" encoding="iso-8859-1"?>
<!-- Generator: Adobe Illustrator 16.0.0, SVG Export Plug-In . SVG Version: 6.00 Build 0)  -->
<!DOCTYPE svg PUBLIC "-//W3C//DTD SVG 1.1//EN" "http://www.w3.org/Graphics/SVG/1.1/DTD/svg11.dtd">
<svg version="1.1" id="Capa_1" xmlns="http://www.w3.org/2000/svg" xmlns:xlink="http://www.w3.org/1999/xlink" x="0px" y="0px"
	 width="612.005px" height="612.005px" viewBox="0 0 612.005 612.005" style="enable-background:new 0 0 612.005 612.005;"
	 xml:space="preserve">
<g>
	<path d="M609.13,126.484c-2.348-2.548-6.156-3.13-9.175-1.401l-126.658,72.738L298.539,99.423
		c-0.373-0.208-0.775-0.328-1.163-0.469L248.255,4.633c-0.924-1.781-2.526-3.108-4.449-3.689c-1.908-0.574-3.987-0.365-5.746,0.604
		L3.867,130.158c-1.744,0.954-3.026,2.571-3.585,4.486c-0.537,1.916-0.306,3.965,0.671,5.702l55.485,97.362
		c-0.022,0.201,0.7,0.388,0.7,0.596c0,0.015,0,0.03,0,0.045c0,0.015,0,0.03,0,0.044v222.955H55.7c0,0,1.155,6.483,3.473,7.877
		l231.875,140.699c1.185,0.724,2.512,1.454,3.853,1.454c1.312,0,2.624-0.157,3.801-0.85l236.624-141.355
		c2.34-1.387,3.524-7.818,3.524-7.818h2.721V239.482l69.549-103.734C613.08,132.878,611.5,129.033,609.13,126.484z M260.851,346.755
		l34.35-21.94l19.854,12.968l-18.706,29.981L260.851,346.755z M288.172,312.078l-41.34,26.182L78.394,238.498l209.778-119.75
		V312.078z M72.044,251.592l216.128,130.98v208.512L72.044,460.133V251.592z M303.078,382.618l223.581-131.167v208.63
		L303.078,591.218V382.618z M323.319,325.127l-20.242-13.452V118.674l155.53,87.792l-94.016,53.891
		c-1.065,0.611-1.878,1.476-2.519,2.519L323.319,325.127z M238.552,18.271l44.649,85.743L67.028,227.513l-49.396-87.912
		L238.552,18.271z M525.361,232.983l0.306,0.209L323.133,353l50.32-80.652l205.702-118.132L525.361,232.983z"/>
</g>
<g>
</g>
<g>
</g>
<g>
</g>
<g>
</g>
<g>
</g>
<g>
</g>
<g>
</g>
<g>
</g>
<g>
</g>
<g>
</g>
<g>
</g>
<g>
</g>
<g>
</g>
<g>
</g>
<g>
</g>
</svg>
